<svg width="501" height="1000" viewBox="0 0 501 1000" fill="none" xmlns="http://www.w3.org/2000/svg">
<path d="M0 1000C65.6609 1000 130.679 987.067 191.342 961.94C252.005 936.812 307.124 899.983 353.553 853.553C399.983 807.124 436.812 752.005 461.94 691.342C487.067 630.679 500 565.661 500 500C500 434.339 487.067 369.321 461.94 308.658C436.812 247.995 399.983 192.876 353.553 146.447C307.124 100.017 252.004 63.1876 191.342 38.0602C130.679 12.9329 65.6609 -5.74026e-06 -3.05176e-05 0V250C32.8304 250 65.3394 256.466 95.6708 269.03C126.002 281.594 153.562 300.009 176.777 323.223C199.991 346.438 218.406 373.998 230.97 404.329C243.534 434.661 250 467.17 250 500C250 532.83 243.534 565.339 230.97 595.671C218.406 626.002 199.991 653.562 176.777 676.777C153.562 699.991 126.002 718.406 95.6709 730.97C65.3395 743.534 32.8305 750 0 750V1000Z" fill="url(#paint0_linear_2_38)" fill-opacity="0.75"/>
<path d="M0 1000C65.6609 1000 130.679 987.067 191.342 961.94C252.005 936.812 307.124 899.983 353.553 853.553C399.983 807.124 436.812 752.005 461.94 691.342C487.067 630.679 500 565.661 500 500C500 434.339 487.067 369.321 461.94 308.658C436.812 247.995 399.983 192.876 353.553 146.447C307.124 100.017 252.004 63.1876 191.342 38.0602C130.679 12.9329 65.6609 -5.74026e-06 -3.05176e-05 0V250C32.8304 250 65.3394 256.466 95.6708 269.03C126.002 281.594 153.562 300.009 176.777 323.223C199.991 346.438 218.406 373.998 230.97 404.329C243.534 434.661 250 467.17 250 500C250 532.83 243.534 565.339 230.97 595.671C218.406 626.002 199.991 653.562 176.777 676.777C153.562 699.991 126.002 718.406 95.6709 730.97C65.3395 743.534 32.8305 750 0 750V1000Z" fill="url(#paint1_linear_2_38)"/>
<path d="M0 1000C65.6609 1000 130.679 987.067 191.342 961.94C252.005 936.812 307.124 899.983 353.553 853.553C399.983 807.124 436.812 752.005 461.94 691.342C487.067 630.679 500 565.661 500 500C500 434.339 487.067 369.321 461.94 308.658C436.812 247.995 399.983 192.876 353.553 146.447C307.124 100.017 252.004 63.1876 191.342 38.0602C130.679 12.9329 65.6609 -5.74026e-06 -3.05176e-05 0V250C32.8304 250 65.3394 256.466 95.6708 269.03C126.002 281.594 153.562 300.009 176.777 323.223C199.991 346.438 218.406 373.998 230.97 404.329C243.534 434.661 250 467.17 250 500C250 532.83 243.534 565.339 230.97 595.671C218.406 626.002 199.991 653.562 176.777 676.777C153.562 699.991 126.002 718.406 95.6709 730.97C65.3395 743.534 32.8305 750 0 750V1000Z" fill="url(#paint2_radial_2_38)"/>
<path d="M0 1000C65.6609 1000 130.679 987.067 191.342 961.94C252.005 936.812 307.124 899.983 353.553 853.553C399.983 807.124 436.812 752.005 461.94 691.342C487.067 630.679 500 565.661 500 500C500 434.339 487.067 369.321 461.94 308.658C436.812 247.995 399.983 192.876 353.553 146.447C307.124 100.017 252.004 63.1876 191.342 38.0602C130.679 12.9329 65.6609 -5.74026e-06 -3.05176e-05 0V250C32.8304 250 65.3394 256.466 95.6708 269.03C126.002 281.594 153.562 300.009 176.777 323.223C199.991 346.438 218.406 373.998 230.97 404.329C243.534 434.661 250 467.17 250 500C250 532.83 243.534 565.339 230.97 595.671C218.406 626.002 199.991 653.562 176.777 676.777C153.562 699.991 126.002 718.406 95.6709 730.97C65.3395 743.534 32.8305 750 0 750V1000Z" stroke="black"/>
<defs>
<linearGradient id="paint0_linear_2_38" x1="-5.96047e-05" y1="-3.08617e-05" x2="-1.30252e-06" y2="1000" gradientUnits="userSpaceOnUse">
<stop stop-color="#FF0000" stop-opacity="0"/>
<stop offset="0.2" stop-color="#FF0000"/>
<stop offset="0.3" stop-color="#FAFF00"/>
<stop offset="0.395385" stop-color="#FAFF00"/>
<stop offset="0.5" stop-color="#00FF0A"/>
<stop offset="0.6" stop-color="#FAFF00"/>
<stop offset="0.697456" stop-color="#FAFF00"/>
<stop offset="0.8" stop-color="#FF0000"/>
<stop offset="1" stop-color="#FF0000" stop-opacity="0"/>
</linearGradient>
<linearGradient id="paint1_linear_2_38" x1="-1.06157e-05" y1="500" x2="500" y2="500" gradientUnits="userSpaceOnUse">
<stop/>
<stop offset="0.5" stop-opacity="0"/>
</linearGradient>
<radialGradient id="paint2_radial_2_38" cx="0" cy="0" r="1" gradientUnits="userSpaceOnUse" gradientTransform="translate(0 500) rotate(-90) scale(500 500)">
<stop offset="0.584382"/>
<stop offset="0.76465" stop-opacity="0.65"/>
<stop offset="1"/>
</radialGradient>
</defs>
</svg>
