<svg xmlns="http://www.w3.org/2000/svg" xmlns:xlink="http://www.w3.org/1999/xlink" version="1.1" width="256" height="256" viewBox="0 0 256 256" xml:space="preserve">

<defs>
</defs>
<g style="stroke: none; stroke-width: 0; stroke-dasharray: none; stroke-linecap: butt; stroke-linejoin: miter; stroke-miterlimit: 10; fill: none; fill-rule: nonzero; opacity: 1;" transform="translate(1.4065934065934016 1.4065934065934016) scale(2.81 2.81)" >
	<path d="M 38.129 72.305 c 9.602 -2.988 20.307 -9.605 29.876 -19.173 C 85.172 35.964 92.854 15.13 87.082 3.592 C 75.545 -2.179 54.71 5.502 37.543 22.67 c -9.568 9.568 -16.185 20.274 -19.173 29.876 L 38.129 72.305 z" style="stroke: none; stroke-width: 1; stroke-dasharray: none; stroke-linecap: butt; stroke-linejoin: miter; stroke-miterlimit: 10; fill: rgb(205,235,252); fill-rule: nonzero; opacity: 1;" transform=" matrix(1 0 0 1 0 0) " stroke-linecap="round" />
	<path d="M 32.901 27.709 c -0.638 -0.038 -1.271 -0.097 -1.919 -0.097 C 17.26 27.612 5.584 36.243 1 48.36 c 4.338 -2.188 9.223 -3.449 14.413 -3.449 c 1.964 0 3.879 0.204 5.746 0.542 C 23.916 39.579 27.891 33.519 32.901 27.709 z" style="stroke: none; stroke-width: 1; stroke-dasharray: none; stroke-linecap: butt; stroke-linejoin: miter; stroke-miterlimit: 10; fill: rgb(255,91,91); fill-rule: nonzero; opacity: 1;" transform=" matrix(1 0 0 1 0 0) " stroke-linecap="round" />
	<path d="M 63.063 59.693 c 0 -0.648 -0.059 -1.281 -0.097 -1.919 c -5.414 4.669 -11.041 8.423 -16.538 11.144 c 0.671 2.584 1.066 5.28 1.066 8.075 c 0 3.996 -0.764 7.805 -2.099 11.333 C 55.866 83.043 63.063 72.221 63.063 59.693 z" style="stroke: none; stroke-width: 1; stroke-dasharray: none; stroke-linecap: butt; stroke-linejoin: miter; stroke-miterlimit: 10; fill: rgb(255,91,91); fill-rule: nonzero; opacity: 1;" transform=" matrix(1 0 0 1 0 0) " stroke-linecap="round" />
	<circle cx="55.339000000000006" cy="35.339" r="9.319" style="stroke: none; stroke-width: 1; stroke-dasharray: none; stroke-linecap: butt; stroke-linejoin: miter; stroke-miterlimit: 10; fill: rgb(255,255,255); fill-rule: nonzero; opacity: 1;" transform="  matrix(1 0 0 1 0 0) "/>
	<path d="M 56.024 8.488 l 26.163 26.163 c 6.677 -11.914 8.683 -23.488 4.895 -31.058 C 79.512 -0.195 67.938 1.811 56.024 8.488 z" style="stroke: none; stroke-width: 1; stroke-dasharray: none; stroke-linecap: butt; stroke-linejoin: miter; stroke-miterlimit: 10; fill: rgb(255,91,91); fill-rule: nonzero; opacity: 1;" transform=" matrix(1 0 0 1 0 0) " stroke-linecap="round" />
	<path d="M 22.117 56.293 c -0.309 0.289 -0.62 0.575 -0.924 0.879 c -6.937 6.937 -12.043 17.358 -9.711 22.02 c 4.662 2.332 15.083 -2.774 22.02 -9.711 c 0.304 -0.304 0.591 -0.614 0.879 -0.924 L 22.117 56.293 z" style="stroke: none; stroke-width: 1; stroke-dasharray: none; stroke-linecap: butt; stroke-linejoin: miter; stroke-miterlimit: 10; fill: rgb(253,191,0); fill-rule: nonzero; opacity: 1;" transform=" matrix(1 0 0 1 0 0) " stroke-linecap="round" />
	<path d="M 38.129 73.305 c -0.261 0 -0.516 -0.103 -0.707 -0.293 L 17.663 53.253 c -0.263 -0.263 -0.358 -0.649 -0.248 -1.004 c 3.166 -10.172 10.063 -20.928 19.421 -30.286 C 54.071 4.727 75.395 -3.372 87.53 2.698 c 0.193 0.097 0.351 0.254 0.447 0.447 c 6.072 12.139 -2.03 33.459 -19.265 50.693 c -9.357 9.358 -20.114 16.255 -30.285 19.422 C 38.329 73.29 38.229 73.305 38.129 73.305 z M 19.507 52.27 l 18.899 18.898 c 9.699 -3.15 19.936 -9.787 28.892 -18.743 C 83.797 35.926 91.748 15.787 86.335 4.34 C 74.893 -1.073 54.751 6.877 38.249 23.377 C 29.293 32.334 22.657 42.57 19.507 52.27 z" style="stroke: none; stroke-width: 1; stroke-dasharray: none; stroke-linecap: butt; stroke-linejoin: miter; stroke-miterlimit: 10; fill: rgb(0,0,0); fill-rule: nonzero; opacity: 1;" transform=" matrix(1 0 0 1 0 0) " stroke-linecap="round" />
	<path d="M 1 49.36 c -0.242 0 -0.481 -0.088 -0.669 -0.257 c -0.307 -0.275 -0.412 -0.711 -0.267 -1.096 C 4.906 35.21 17.331 26.612 30.982 26.612 c 0.501 0 0.993 0.033 1.486 0.066 l 0.493 0.033 c 0.379 0.022 0.713 0.258 0.861 0.609 c 0.148 0.35 0.085 0.754 -0.164 1.042 c -4.843 5.616 -8.853 11.673 -11.595 17.516 c -0.192 0.411 -0.64 0.638 -1.083 0.559 c -1.953 -0.353 -3.774 -0.526 -5.568 -0.526 c -4.869 0 -9.567 1.124 -13.963 3.342 C 1.307 49.325 1.153 49.36 1 49.36 z M 30.833 28.612 C 18.915 28.671 8.013 35.7 2.931 46.378 c 3.98 -1.638 8.167 -2.467 12.482 -2.467 c 1.68 0 3.378 0.141 5.169 0.429 C 23.126 39.088 26.641 33.697 30.833 28.612 z" style="stroke: none; stroke-width: 1; stroke-dasharray: none; stroke-linecap: butt; stroke-linejoin: miter; stroke-miterlimit: 10; fill: rgb(0,0,0); fill-rule: nonzero; opacity: 1;" transform=" matrix(1 0 0 1 0 0) " stroke-linecap="round" />
	<path d="M 45.395 89.325 c -0.242 0 -0.481 -0.088 -0.669 -0.257 c -0.307 -0.275 -0.412 -0.711 -0.266 -1.096 c 1.349 -3.568 2.034 -7.261 2.034 -10.98 c 0 -2.55 -0.348 -5.181 -1.033 -7.823 c -0.119 -0.458 0.1 -0.937 0.524 -1.147 c 5.554 -2.749 11.048 -6.452 16.327 -11.004 c 0.289 -0.249 0.693 -0.313 1.043 -0.164 c 0.35 0.147 0.586 0.481 0.608 0.861 l 0.032 0.488 c 0.033 0.494 0.066 0.988 0.066 1.491 c 0 12.543 -6.98 23.857 -18.217 29.525 C 45.702 89.29 45.548 89.325 45.395 89.325 z M 47.591 69.452 c 0.599 2.541 0.902 5.074 0.902 7.539 c 0 3.106 -0.447 6.193 -1.332 9.21 c 9.209 -5.605 14.849 -15.482 14.901 -26.358 C 57.363 63.721 52.505 66.947 47.591 69.452 z" style="stroke: none; stroke-width: 1; stroke-dasharray: none; stroke-linecap: butt; stroke-linejoin: miter; stroke-miterlimit: 10; fill: rgb(0,0,0); fill-rule: nonzero; opacity: 1;" transform=" matrix(1 0 0 1 0 0) " stroke-linecap="round" />
	<path d="M 55.335 45.659 c -2.756 0 -5.347 -1.073 -7.296 -3.022 c -1.949 -1.949 -3.023 -4.541 -3.023 -7.297 c 0 -2.756 1.074 -5.348 3.023 -7.297 c 1.949 -1.949 4.54 -3.022 7.296 -3.022 s 5.347 1.073 7.296 3.022 c 1.949 1.949 3.023 4.541 3.023 7.297 c 0 2.756 -1.074 5.348 -3.023 7.297 l 0 0 l 0 0 C 60.682 44.586 58.091 45.659 55.335 45.659 z M 55.335 27.021 c -2.222 0 -4.312 0.865 -5.882 2.436 c -1.572 1.571 -2.437 3.661 -2.437 5.883 s 0.865 4.312 2.437 5.883 c 1.571 1.571 3.66 2.436 5.882 2.436 s 4.312 -0.865 5.882 -2.436 l 0 0 c 1.572 -1.571 2.437 -3.661 2.437 -5.883 s -0.865 -4.312 -2.437 -5.883 C 59.646 27.886 57.557 27.021 55.335 27.021 z" style="stroke: none; stroke-width: 1; stroke-dasharray: none; stroke-linecap: butt; stroke-linejoin: miter; stroke-miterlimit: 10; fill: rgb(0,0,0); fill-rule: nonzero; opacity: 1;" transform=" matrix(1 0 0 1 0 0) " stroke-linecap="round" />
	<path d="M 82.187 35.651 c -0.264 0 -0.518 -0.104 -0.707 -0.293 L 55.317 9.195 c -0.222 -0.221 -0.326 -0.534 -0.283 -0.844 c 0.043 -0.31 0.228 -0.582 0.501 -0.736 C 68.072 0.59 79.733 -1.202 87.53 2.698 c 0.193 0.097 0.351 0.254 0.447 0.447 c 3.901 7.797 2.108 19.459 -4.918 31.994 c -0.152 0.273 -0.425 0.459 -0.735 0.502 C 82.278 35.648 82.233 35.651 82.187 35.651 z M 57.674 8.723 l 24.277 24.277 c 5.988 -11.184 7.62 -21.794 4.384 -28.661 C 79.469 1.104 68.859 2.736 57.674 8.723 z" style="stroke: none; stroke-width: 1; stroke-dasharray: none; stroke-linecap: butt; stroke-linejoin: miter; stroke-miterlimit: 10; fill: rgb(0,0,0); fill-rule: nonzero; opacity: 1;" transform=" matrix(1 0 0 1 0 0) " stroke-linecap="round" />
	<path d="M 14.231 80.754 c -1.201 0 -2.283 -0.21 -3.196 -0.667 c -0.193 -0.097 -0.35 -0.254 -0.447 -0.447 c -2.648 -5.293 2.98 -16.256 9.898 -23.175 c 0.27 -0.269 0.544 -0.525 0.819 -0.781 l 0.13 -0.121 c 0.393 -0.368 1.008 -0.359 1.389 0.023 l 12.264 12.265 c 0.381 0.381 0.392 0.995 0.024 1.388 l -0.07 0.075 c -0.273 0.293 -0.545 0.585 -0.833 0.873 C 28.485 75.913 19.991 80.754 14.231 80.754 z M 12.24 78.436 c 4.146 1.614 13.767 -2.871 20.556 -9.661 c 0.065 -0.065 0.129 -0.131 0.193 -0.196 L 22.096 57.686 c -0.066 0.063 -0.131 0.128 -0.197 0.193 C 15.112 64.668 10.627 74.29 12.24 78.436 z" style="stroke: none; stroke-width: 1; stroke-dasharray: none; stroke-linecap: butt; stroke-linejoin: miter; stroke-miterlimit: 10; fill: rgb(0,0,0); fill-rule: nonzero; opacity: 1;" transform=" matrix(1 0 0 1 0 0) " stroke-linecap="round" />
</g>
</svg>